<?xml version="1.0" encoding="UTF-8"?>
<svg xmlns="http://www.w3.org/2000/svg" viewBox="0 0 1679.72 523.91" style="background: transparent;"><defs><style>.cls-1{fill:#a14dff;}</style></defs><g id="Layer_2" data-name="Layer 2"><g id="Layer_1-2" data-name="Layer 1"><path class="cls-1" d="M469.66,103.35A261.74,261.74,0,0,1,495,380.12a103.88,103.88,0,0,0,14.14,129.65A103.26,103.26,0,0,0,470,485.11l-.08-.07a104.72,104.72,0,0,0-76.36,3.1,96,96,0,0,0-14.93,8.15.39.39,0,0,0-.29.14,271.09,271.09,0,0,1-41.46,16.37A261,261,0,0,1,103,470.26,158.66,158.66,0,0,0,267.75,303.68,152.81,152.81,0,0,0,261.33,266c-.65-2.09-1.3-4.18-2.09-6.13a152.33,152.33,0,0,0,43.84,8.51,158.67,158.67,0,0,0,166.58-165Z"/><path class="cls-1" d="M425.24,94.51a158.62,158.62,0,0,1-19.1,52.16,184.2,184.2,0,0,0-253.63-33.45,182.53,182.53,0,0,0-15.62,13c-3.74,3.47-7.35,7.07-10.77,10.84a184.06,184.06,0,0,0,21.54,268.62A159.36,159.36,0,0,1,94.4,425.32a154.55,154.55,0,0,1-33.91,2.29c-.53,0-1.06,0-1.6-.05A261.8,261.8,0,0,1,186.68,11.19l.07-.06A261.44,261.44,0,0,1,427.49,59c0,.44,0,.9,0,1.34A157.31,157.31,0,0,1,425.24,94.51Z"/><path class="cls-1" d="M828.47,390.08l-50.06,29.05V340.61q-5.65,2.94-11.56,5.72a128.26,128.26,0,0,1-12.2,5,97.2,97.2,0,0,1-12.75,3.52,65.47,65.47,0,0,1-13,1.31,109.48,109.48,0,0,1-38.69-6.79,98,98,0,0,1-31.67-19.06,88.78,88.78,0,0,1-29.22-67.07,89.93,89.93,0,0,1,7.83-37.88,87.26,87.26,0,0,1,21.39-29.2,97.2,97.2,0,0,1,31.67-18.73,111.68,111.68,0,0,1,38.69-6.62,83,83,0,0,1,18.66,2.12,110.75,110.75,0,0,1,34.59,14.56,169.76,169.76,0,0,1,15,10.8l19.29-20.78h12ZM778.41,263.23a42.33,42.33,0,0,0-3.92-17.75,50.63,50.63,0,0,0-10.65-15.22,52.92,52.92,0,0,0-15.75-10.63,46.69,46.69,0,0,0-19.2-4A54.76,54.76,0,0,0,709.68,219,46.42,46.42,0,0,0,694,228.54a44.9,44.9,0,0,0-10.47,15,48.79,48.79,0,0,0-3.82,19.72,50.78,50.78,0,0,0,3.82,20.2,42.6,42.6,0,0,0,10.47,15,45.52,45.52,0,0,0,15.65,9.24,57.07,57.07,0,0,0,19.21,3.19,46.53,46.53,0,0,0,19.2-4,52.73,52.73,0,0,0,15.75-10.63A50.71,50.71,0,0,0,774.49,281,42.4,42.4,0,0,0,778.41,263.23Z"/><path class="cls-1" d="M1061.49,263.55a88.39,88.39,0,0,1-29.13,66.83,96.37,96.37,0,0,1-31.58,18.9,111.13,111.13,0,0,1-38.87,6.7,108.19,108.19,0,0,1-38.69-6.87A99,99,0,0,1,891.55,330a89.41,89.41,0,0,1-21.39-29.2,87.59,87.59,0,0,1-7.83-37.22V136.86l49.88-29.05v81.8a43.78,43.78,0,0,1,9.74-8.18,60,60,0,0,1,12.38-5.89A88.12,88.12,0,0,1,948.07,172a81.07,81.07,0,0,1,13.84-1.22,107.48,107.48,0,0,1,38.87,6.95,97.67,97.67,0,0,1,31.58,19.38,92.21,92.21,0,0,1,21.3,29.37A87.2,87.2,0,0,1,1061.49,263.55Zm-50.06,0a45.71,45.71,0,0,0-3.92-18.89,47,47,0,0,0-10.65-15.13,49,49,0,0,0-15.75-10,51.25,51.25,0,0,0-19.2-3.6,46.61,46.61,0,0,0-19.21,4A52.69,52.69,0,0,0,927,230.59,49,49,0,0,0,916.4,245.8a43.24,43.24,0,0,0-3.83,17.75A46,46,0,0,0,927,297.42a51.16,51.16,0,0,0,69.9,0,47.41,47.41,0,0,0,10.65-15.05A45.18,45.18,0,0,0,1011.43,263.55Z"/><path class="cls-1" d="M1389.9,356h-49.7V180.77h12l16.38,20.78a88.84,88.84,0,0,1,27.31-15.13,95.86,95.86,0,0,1,31.68-5.32h43.87v44.5h-43.87a41.22,41.22,0,0,0-14.75,2.62,37.62,37.62,0,0,0-12,7.2,33.38,33.38,0,0,0-8,10.79,30.92,30.92,0,0,0-2.91,13.25Z"/><path class="cls-1" d="M1679.72,356h-12l-19.29-27.32a159.43,159.43,0,0,1-15,10.72,113.84,113.84,0,0,1-16.66,8.67,110.31,110.31,0,0,1-17.93,5.81,83,83,0,0,1-18.66,2.12,118.5,118.5,0,0,1-38.69-6.21,93.85,93.85,0,0,1-31.67-18.08,84.75,84.75,0,0,1-21.39-29q-7.83-17.17-7.83-39.1a88.77,88.77,0,0,1,29.22-66.91,98,98,0,0,1,31.67-19.06,109.47,109.47,0,0,1,38.69-6.78,84.17,84.17,0,0,1,18.75,2.12,104.3,104.3,0,0,1,18,5.89,115.72,115.72,0,0,1,16.66,8.84,136.09,136.09,0,0,1,14.84,11l19.29-27.81h12Zm-50.06-92.43a42.4,42.4,0,0,0-3.92-17.75,50.71,50.71,0,0,0-10.65-15.21A52.81,52.81,0,0,0,1599.35,220a46.61,46.61,0,0,0-19.21-4,58.83,58.83,0,0,0-19.21,3.1,44.59,44.59,0,0,0-15.65,9.17,42.6,42.6,0,0,0-10.47,15,56.19,56.19,0,0,0,0,40.73,42.6,42.6,0,0,0,10.47,15,44.42,44.42,0,0,0,15.65,9.16,58.57,58.57,0,0,0,19.21,3.11,46.77,46.77,0,0,0,19.21-4,53,53,0,0,0,15.74-10.63,50.63,50.63,0,0,0,10.65-15.22A42.33,42.33,0,0,0,1629.66,263.55Z"/><path class="cls-1" d="M1274.85,356a93.81,93.81,0,0,1-34-6.13,90,90,0,0,1-27.9-16.85,79.71,79.71,0,0,1-18.85-25,69.23,69.23,0,0,1-6.86-30.43v-52h-24.33V181.07h24.33v-49L1237,103.35v77.72h75.74v44.51H1237v52a30.07,30.07,0,0,0,2.93,13.17,33.47,33.47,0,0,0,8,10.72,39.13,39.13,0,0,0,12.07,7.28,40.54,40.54,0,0,0,14.82,2.7h37.87V356Z"/><path class="cls-1" d="M1139.35,356H1089V192.77l50.32-29.05Z"/><path class="cls-1" d="M1138.36,131.83l-14.48-8.36-17.42-10.06L1089,103.35v19a2,2,0,0,0,1,1.71l13.48,7.78a2,2,0,0,1,0,3.41L1090,143a2,2,0,0,0-1,1.7v19l17.43-10.05,17.42-10.06,14.48-8.37A2,2,0,0,0,1138.36,131.83Z"/></g></g></svg>